<svg width="73" height="73" viewBox="0 0 73 73" fill="none" xmlns="http://www.w3.org/2000/svg">
<rect width="73" height="73" rx="5" fill="#1F1C26"/>
<path d="M42.0256 24.1566L35.4376 49.4286H27.9856L23.9536 32.7966L19.7776 49.4286H12.3256L5.91758 24.1566H12.5056L16.1416 42.5526L20.6416 24.1566H27.4096L31.7296 42.5526L35.4016 24.1566H42.0256Z" fill="#F2F2F2"/>
<path d="M59.7649 49.4286L51.2689 38.2686V49.4286H45.1129V24.1566H51.2689V35.2446L59.6929 24.1566H66.9289L57.1369 36.5406L67.2889 49.4286H59.7649Z" fill="#F2F2F2"/>
<path d="M59.7649 49.4286L51.2689 38.2686V49.4286H45.1129V24.1566H51.2689V35.2446L59.6929 24.1566H66.9289L57.1369 36.5406L67.2889 49.4286H59.7649Z" fill="#F24B88"/>
</svg>
